<svg xmlns="http://www.w3.org/2000/svg" viewBox="0 0 640 360" role="img" aria-label="Seedling Meadow">
  <rect width="640" height="360" fill="#fff8e8"/>
  <path d="M0 238c88-52 165-55 244-10 83 48 167 46 252-4 55-32 103-39 144-25v161H0z" fill="#9fc995"/>
  <path d="M0 280c100-31 190-28 271 10 85 40 178 39 279-5 36-16 66-22 90-18v93H0z" fill="#315f5a"/>
  <circle cx="546" cy="82" r="48" fill="#f5d58a"/>
  <g fill="#315f5a">
    <path d="M118 226c-10-41 3-73 39-98 13 42 0 75-39 98z"/>
    <path d="M154 226c9-34 31-55 67-62-1 39-22 60-67 62z"/>
    <path d="M458 228c-6-42 10-75 48-99 9 45-8 78-48 99z"/>
  </g>
  <g fill="#fff8e8" opacity=".9">
    <ellipse cx="132" cy="72" rx="58" ry="21"/>
    <ellipse cx="184" cy="72" rx="42" ry="17"/>
    <ellipse cx="395" cy="112" rx="72" ry="23"/>
    <ellipse cx="462" cy="112" rx="44" ry="17"/>
  </g>
</svg>
