<svg xmlns="http://www.w3.org/2000/svg" viewBox="0 0 640 360" role="img" aria-label="Starlight Terrace">
  <rect width="640" height="360" fill="#1f2c4a"/>
  <g fill="#fff1a8">
    <circle cx="94" cy="74" r="3"/>
    <circle cx="174" cy="42" r="4"/>
    <circle cx="295" cy="82" r="3"/>
    <circle cx="454" cy="50" r="4"/>
    <circle cx="548" cy="104" r="3"/>
  </g>
  <path d="M0 254c92-45 181-47 266-8 88 40 180 37 276-9 37-18 70-23 98-15v138H0z" fill="#59608c"/>
  <path d="M74 281h492v48H74z" fill="#2d3b5f"/>
  <path d="M112 236h416v49H112z" fill="#445078"/>
  <path d="M160 195h320v46H160z" fill="#59608c"/>
  <g fill="#f1d06a">
    <path d="M318 103l12 33 35 1-28 20 10 34-29-20-29 20 10-34-28-20 35-1z"/>
  </g>
  <g fill="#9fc995">
    <path d="M173 194c-12-39 2-68 42-88 8 41-7 70-42 88z"/>
    <path d="M467 236c-10-34 1-60 34-80 9 36-4 63-34 80z"/>
  </g>
</svg>
